<?xml version="1.0" encoding="UTF-8"?>
<svg id="Camada_1" xmlns="http://www.w3.org/2000/svg" version="1.1" xmlns:xlink="http://www.w3.org/1999/xlink" viewBox="0 0 2292.71 1329.77">
  <!-- Generator: Adobe Illustrator 29.3.0, SVG Export Plug-In . SVG Version: 2.1.0 Build 146)  -->
  <defs>
    <style>
      .st0 {
        fill: url(#Gradiente_sem_nome_627);
      }

      .st1 {
        fill: url(#Gradiente_sem_nome_6210);
      }

      .st2 {
        fill: #49494c;
      }

      .st3 {
        fill: url(#Gradiente_sem_nome_6218);
      }

      .st4 {
        fill: url(#Gradiente_sem_nome_623);
      }

      .st5 {
        fill: url(#Gradiente_sem_nome_629);
      }

      .st6 {
        fill: url(#Gradiente_sem_nome_6217);
      }

      .st7 {
        fill: url(#Gradiente_sem_nome_626);
      }

      .st7, .st8 {
        fill-rule: evenodd;
      }

      .st9 {
        fill: url(#Gradiente_sem_nome_6213);
      }

      .st10 {
        fill: url(#Gradiente_sem_nome_6214);
      }

      .st11 {
        fill: url(#Gradiente_sem_nome_625);
      }

      .st12 {
        fill: url(#Gradiente_sem_nome_622);
      }

      .st13 {
        fill: url(#Gradiente_sem_nome_624);
      }

      .st14 {
        fill: url(#Gradiente_sem_nome_621);
      }

      .st8 {
        fill: url(#Gradiente_sem_nome_6215);
      }

      .st15 {
        fill: url(#Gradiente_sem_nome_628);
      }

      .st16 {
        fill: url(#Gradiente_sem_nome_6216);
      }

      .st17 {
        fill: url(#Gradiente_sem_nome_62);
      }

      .st18 {
        fill: url(#Gradiente_sem_nome_6211);
      }

      .st19 {
        fill: url(#Gradiente_sem_nome_6212);
      }
    </style>
    <linearGradient id="Gradiente_sem_nome_62" data-name="Gradiente sem nome 62" x1="1356.79" y1="1001.04" x2="1372.27" y2="1001.04" gradientUnits="userSpaceOnUse">
      <stop offset="0" stop-color="#765b9d"/>
      <stop offset="1" stop-color="#483561"/>
    </linearGradient>
    <linearGradient id="Gradiente_sem_nome_621" data-name="Gradiente sem nome 62" x1="1356.64" y1="708.65" x2="1372.63" y2="708.65" xlink:href="#Gradiente_sem_nome_62"/>
    <linearGradient id="Gradiente_sem_nome_622" data-name="Gradiente sem nome 62" x1="1269.78" y1="652.22" x2="1283.53" y2="652.22" xlink:href="#Gradiente_sem_nome_62"/>
    <linearGradient id="Gradiente_sem_nome_623" data-name="Gradiente sem nome 62" x1="1294.51" y1="644.58" x2="1307.33" y2="644.58" xlink:href="#Gradiente_sem_nome_62"/>
    <linearGradient id="Gradiente_sem_nome_624" data-name="Gradiente sem nome 62" x1="1359.86" y1="635.02" x2="1461.15" y2="635.02" xlink:href="#Gradiente_sem_nome_62"/>
    <linearGradient id="Gradiente_sem_nome_625" data-name="Gradiente sem nome 62" x1="1461.12" y1="1074.7" x2="1461.15" y2="1074.7" xlink:href="#Gradiente_sem_nome_62"/>
    <linearGradient id="Gradiente_sem_nome_626" data-name="Gradiente sem nome 62" x1="1120.77" y1="854.83" x2="1461.15" y2="854.83" xlink:href="#Gradiente_sem_nome_62"/>
    <linearGradient id="Gradiente_sem_nome_627" data-name="Gradiente sem nome 62" x1="1542.06" y1="1086.35" x2="731.09" y2="504.96" xlink:href="#Gradiente_sem_nome_62"/>
    <linearGradient id="Gradiente_sem_nome_628" data-name="Gradiente sem nome 62" x1="797.59" y1="834.43" x2="1184.55" y2="834.43" xlink:href="#Gradiente_sem_nome_62"/>
    <linearGradient id="Gradiente_sem_nome_629" data-name="Gradiente sem nome 62" x1="1359.16" y1="1001.22" x2="1374.85" y2="1001.22" xlink:href="#Gradiente_sem_nome_62"/>
    <linearGradient id="Gradiente_sem_nome_6210" data-name="Gradiente sem nome 62" x1="1359.01" y1="704.79" x2="1375.22" y2="704.79" xlink:href="#Gradiente_sem_nome_62"/>
    <linearGradient id="Gradiente_sem_nome_6211" data-name="Gradiente sem nome 62" x1="1270.95" y1="647.57" x2="1284.89" y2="647.57" xlink:href="#Gradiente_sem_nome_62"/>
    <linearGradient id="Gradiente_sem_nome_6212" data-name="Gradiente sem nome 62" x1="1296.02" y1="639.83" x2="1309.02" y2="639.83" xlink:href="#Gradiente_sem_nome_62"/>
    <linearGradient id="Gradiente_sem_nome_6213" data-name="Gradiente sem nome 62" x1="1362.27" y1="630.14" x2="1464.96" y2="630.14" xlink:href="#Gradiente_sem_nome_62"/>
    <linearGradient id="Gradiente_sem_nome_6214" data-name="Gradiente sem nome 62" x1="1464.93" y1="1075.9" x2="1464.96" y2="1075.9" xlink:href="#Gradiente_sem_nome_62"/>
    <linearGradient id="Gradiente_sem_nome_6215" data-name="Gradiente sem nome 62" x1="1119.87" y1="852.99" x2="1464.96" y2="852.99" xlink:href="#Gradiente_sem_nome_62"/>
    <linearGradient id="Gradiente_sem_nome_6216" data-name="Gradiente sem nome 62" x1="1486.41" y1="1092.4" x2="1013.88" y2="677.3" xlink:href="#Gradiente_sem_nome_62"/>
    <linearGradient id="Gradiente_sem_nome_6217" data-name="Gradiente sem nome 62" x1="788.89" y1="830.99" x2="1181.89" y2="830.99" xlink:href="#Gradiente_sem_nome_62"/>
    <linearGradient id="Gradiente_sem_nome_6218" data-name="Gradiente sem nome 62" x1="955.35" y1="1091.33" x2="955.39" y2="1091.33" xlink:href="#Gradiente_sem_nome_62"/>
  </defs>
  <g>
    <g>
      <g>
        <path class="st17" d="M1358.49,1000.61c4.68,0,9.28.3,13.78.86-5.22-.06-10.41-.39-15.48-.86h1.7Z"/>
        <path class="st14" d="M1372.63,708.19c-4.62.63-9.34.92-14.14.92h-1.85c5.28-.54,10.59-.84,15.99-.92Z"/>
        <path class="st12" d="M1283.53,649.71c-4.65,1.58-9.25,3.25-13.75,5.01,4.5-1.79,9.1-3.46,13.75-5.01Z"/>
        <path class="st4" d="M1307.33,642.88c-4.32,1.04-8.59,2.18-12.83,3.4,4.24-1.25,8.5-2.39,12.83-3.4Z"/>
        <path class="st13" d="M1461.15,634.8v.42l-.03.03v-.42h-85.84c-5.19.03-10.32.15-15.42.42,5.1-.3,10.26-.42,15.45-.45h85.84Z"/>
        <path class="st11" d="M1461.15,1074.62v.24h-.03v-.33s.03.06.03.09Z"/>
      </g>
      <path class="st7" d="M1461.15,634.8v.42c-.3.89-.6,1.79-.95,2.65-.33.92-.66,1.82-1.04,2.74-.3.81-.66,1.64-.98,2.45-.39.89-.78,1.82-1.19,2.74-.69,1.46-1.4,2.95-2.15,4.38-.84,1.64-1.7,3.25-2.59,4.83-.42.69-.81,1.34-1.22,2-.92,1.55-1.91,3.07-2.89,4.56-.48.66-.92,1.31-1.4,1.97-1.01,1.43-2.03,2.8-3.1,4.18-.54.69-1.1,1.34-1.64,2.03-.54.66-1.1,1.31-1.67,1.97-3.97,4.59-8.32,8.83-12.97,12.68-.86.72-1.73,1.4-2.62,2.09-.87.69-1.73,1.34-2.62,1.97-1.19.86-2.42,1.73-3.64,2.54-.83.57-1.67,1.1-2.53,1.64-3.49,2.18-7.1,4.18-10.83,5.94-.95.48-1.94.92-2.89,1.34-.84.39-1.64.72-2.48,1.07-.51.21-1.01.42-1.52.6-2.21.89-4.41,1.67-6.68,2.39-1.1.36-2.24.69-3.37,1.01-.24.09-.48.15-.72.21-.98.27-1.97.54-2.95.78-2.3.57-4.62,1.07-6.98,1.46-.63.12-1.25.24-1.91.33-.95.15-1.94.3-2.92.42-5.4.09-10.71.39-15.99.92h-20.61c-55.06,0-104.24,29.95-129.95,74.77,0,0,0,.03-.03.03-11.27,19.75-18.07,42.32-18.79,66.54-.27,9.01.3,17.87,1.61,26.46.54,3.61,1.22,7.16,2.03,10.65.03.06.03.12.03.18.54,2.27,1.1,4.5,1.76,6.74.36,1.25.72,2.48,1.07,3.67.69,2.21,1.4,4.35,2.21,6.5.03.09.09.18.09.27.81,2.12,1.64,4.21,2.51,6.29v.09c22.1,52.41,74,89.3,134.37,89.3h23.86c.12,0,.24.03.36.03,4.83.45,9.78.78,14.76.84h.36c.89.12,1.79.24,2.68.39.92.12,1.79.27,2.68.45,2.24.39,4.47.86,6.68,1.4,1.07.27,2.18.54,3.25.87,1.88.51,3.76,1.1,5.61,1.73.81.27,1.61.54,2.39.84.15.06.33.12.48.18,1.22.45,2.45.92,3.64,1.43.78.3,1.52.63,2.27.95.95.42,1.91.84,2.86,1.31,3.76,1.76,7.37,3.76,10.86,5.94.95.57,1.88,1.16,2.8,1.79,3.04,2.03,6,4.24,8.83,6.56.66.54,1.31,1.1,1.97,1.67.66.57,1.31,1.13,1.94,1.73,1.28,1.16,2.54,2.36,3.76,3.58.6.63,1.22,1.22,1.82,1.85,1.19,1.25,2.36,2.54,3.49,3.85.57.66,1.13,1.31,1.67,2,.54.66,1.1,1.34,1.64,2.03,2.68,3.4,5.16,7.01,7.43,10.74.42.69.81,1.37,1.22,2.06.89,1.55,1.76,3.13,2.57,4.74.42.78.81,1.55,1.16,2.33,1.16,2.36,2.21,4.77,3.16,7.25.33.81.66,1.64.95,2.48.3.81.6,1.64.86,2.48.09.15.12.3.18.45v.36h-87c-1.94,0-3.88-.03-5.82-.09-3.85-.09-7.7-.27-11.51-.51-1.91-.12-3.82-.27-5.73-.42-1.88-.18-3.79-.36-5.67-.54-3.76-.39-7.52-.86-11.24-1.37-7.43-1.07-14.76-2.42-21.95-4-1.82-.42-3.61-.84-5.4-1.25-1.79-.45-3.55-.89-5.34-1.34-3.1-.81-6.17-1.67-9.22-2.59-3.04-.89-6.05-1.85-9.04-2.86h-.03c-4.47-1.52-8.89-3.13-13.24-4.83h-.03c-3.28-1.31-6.5-2.65-9.69-4.06-1.58-.72-3.16-1.43-4.74-2.15-3.16-1.46-6.26-2.98-9.34-4.53-4.62-2.36-9.13-4.83-13.54-7.43-1.88-1.1-3.7-2.21-5.55-3.34-1.43-.89-2.86-1.79-4.26-2.71-1.28-.84-2.57-1.7-3.85-2.57-1.34-.89-2.65-1.82-3.97-2.71-1.31-.92-2.62-1.88-3.91-2.8-1.46-1.07-2.89-2.15-4.32-3.22-1.43-1.1-2.83-2.21-4.24-3.31-2.8-2.24-5.55-4.53-8.23-6.86-1.79-1.58-3.55-3.16-5.28-4.77-1.73-1.58-3.43-3.22-5.1-4.86-1.58-1.58-3.16-3.16-4.71-4.77-.48-.48-.95-.98-1.4-1.49-.87-.89-1.7-1.79-2.51-2.71-1.97-2.12-3.85-4.3-5.7-6.47-1.61-1.91-3.22-3.85-4.77-5.82-3.1-3.94-6.05-7.96-8.86-12.05-1.4-2.06-2.77-4.12-4.09-6.2-.89-1.4-1.76-2.8-2.6-4.21-.86-1.43-1.7-2.83-2.51-4.27-1.43-2.57-2.83-5.13-4.18-7.72-1.34-2.59-2.62-5.22-3.85-7.87-.6-1.31-1.19-2.65-1.79-4-2.89-6.68-5.43-13.51-7.61-20.49-.42-1.4-.84-2.77-1.25-4.21-1.58-5.61-2.95-11.3-4.03-17.09-.27-1.46-.54-2.89-.78-4.35-.72-4.35-1.28-8.77-1.7-13.21-.15-1.49-.27-2.95-.36-4.44-.12-1.49-.21-2.98-.27-4.47-.15-3.01-.21-6.02-.21-9.04,0-3.4.09-6.8.27-10.17.06-1.19.12-2.39.21-3.58.54-7.61,1.52-15.09,2.95-22.46.24-1.16.45-2.3.69-3.43.51-2.3,1.01-4.56,1.58-6.83.3-1.1.6-2.24.89-3.37.24-.89.48-1.82.75-2.71.78-2.8,1.64-5.61,2.56-8.35,5.94-17.75,14.35-34.54,24.97-50.14,1.91-2.83,3.91-5.61,5.97-8.35l.03-.03c2.06-2.74,4.21-5.46,6.38-8.11,2.21-2.65,4.47-5.28,6.8-7.84l.03-.03c2.33-2.57,4.74-5.1,7.19-7.58,1.25-1.25,2.51-2.48,3.76-3.7,23.29-22.43,51.84-40.71,83.99-53.42,4.5-1.79,9.1-3.46,13.75-5.01,1.55-.54,3.1-1.01,4.68-1.52,2.09-.66,4.18-1.31,6.29-1.91,4.24-1.25,8.5-2.39,12.83-3.4,2.18-.54,4.35-1.01,6.53-1.49,8.98-1.94,18.16-3.46,27.47-4.56,4.09-.48,8.23-.86,12.41-1.16.33-.06.69-.09,1.01-.09,1.7-.12,3.4-.24,5.1-.33,5.1-.3,10.26-.42,15.45-.45h85.84Z"/>
    </g>
    <path class="st0" d="M1461.14,1074.62c3.59,10.76,5.51,22.21,5.51,34.16h-129.48c-8.7,0-17.33-.43-25.83-1.29h-258.86c-33.07,0-64.74-6.27-93.99-17.66t.03.07h-.03c-.83-.3-1.59-.63-2.39-.96-14.21-5.64-27.85-12.48-40.7-20.52-5.05-10.42-9.5-21.08-13.45-31.97-9.56-26.56-15.77-54.32-18.49-82.4-2.76-28.32-2.22-56.74,3.85-84.56.1-.46.2-.93.3-1.36.56-2.76,1.16-5.48,1.79-8.17,2.99-12.32,7.14-24.4,12.38-35.92,2.12-4.71,4.38-9.36,6.77-13.94h124.7c-4.58,15.97-6.71,32.4-6.11,49.17.43,12.88,2.52,25.53,6.18,37.91h-124.17c.66,2.19,1.43,4.38,2.22,6.54.33,1,.7,1.99,1.1,2.92.46,1.13.9,2.22,1.36,3.29v.03s.03.07.03.1c22.08,52.39,73.97,89.31,134.33,89.31h76.86c-28.05-39.61-45.02-87.55-45.98-139.57-2.72-142.23,112.22-258.8,253.85-258.8h133.73c0,11.95-1.93,23.44-5.51,34.16v-.33h-85.82c-5.21.03-10.36.13-15.47.43-1.69.1-3.39.2-5.08.33-.33,0-.7.03-1.03.1-4.18.3-8.33.66-12.42,1.16-9.3,1.1-18.49,2.62-27.46,4.55-2.19.5-4.35.96-6.54,1.49-4.32,1.03-8.6,2.16-12.82,3.42-2.12.56-4.22,1.23-6.31,1.89-1.56.5-3.12,1-4.68,1.53-4.65,1.56-9.23,3.22-13.74,5.01-32.14,12.68-60.69,30.98-84,53.42-1.23,1.23-2.49,2.42-3.75,3.69-2.46,2.49-4.85,5.01-7.17,7.57l-.03.03c-2.36,2.56-4.65,5.21-6.81,7.87-2.19,2.62-4.32,5.35-6.37,8.1l-.03.03c-2.06,2.72-4.08,5.51-5.98,8.33-10.62,15.6-19.02,32.4-24.97,50.13-.93,2.76-1.79,5.58-2.56,8.37-.27.9-.5,1.83-.76,2.72-.3,1.13-.6,2.26-.9,3.35-.56,2.29-1.1,4.55-1.56,6.84-.23,1.13-.46,2.26-.7,3.42-1.43,7.37-2.42,14.87-2.95,22.48-.1,1.2-.13,2.39-.2,3.59-.2,3.35-.3,6.77-.3,10.19,0,3.02.07,6.01.23,9,.03,1.49.13,2.99.27,4.48.07,1.49.2,2.95.37,4.45.4,4.45.96,8.83,1.69,13.21.2,1.46.5,2.89.8,4.35,1.03,5.78,2.36,11.49,4.02,17.1.37,1.39.76,2.79,1.26,4.18,1.56,5.25,3.39,10.39,5.48,15.47.66,1.69,1.39,3.35,2.12,5.05.6,1.33,1.2,2.66,1.76,3.98,1.2,2.66,2.49,5.28,3.85,7.87,1.33,2.59,2.69,5.18,4.18,7.74.8,1.43,1.66,2.82,2.52,4.25.83,1.39,1.69,2.82,2.59,4.22,1.29,2.09,2.69,4.15,4.08,6.21,2.76,4.12,5.71,8.1,8.86,12.05,1.53,1.96,3.15,3.88,4.75,5.81,1.79,2.19,3.72,4.35,5.71,6.47.76.93,1.63,1.83,2.49,2.72.46.5.93,1,1.43,1.49,1.53,1.59,3.09,3.19,4.71,4.75,1.66,1.69,3.35,3.32,5.08,4.88,1.73,1.66,3.49,3.25,5.28,4.75,2.69,2.36,5.44,4.65,8.23,6.87,1.39,1.1,2.82,2.22,4.25,3.32,1.43,1.06,2.86,2.12,4.32,3.22,1.29.93,2.59,1.86,3.92,2.79,1.29.96,2.62,1.86,3.95,2.72,1.26.9,2.56,1.76,3.85,2.56,1.39.93,2.82,1.83,4.28,2.72,1.83,1.13,3.65,2.22,5.54,3.35,4.42,2.59,8.9,5.05,13.55,7.4,3.05,1.59,6.18,3.12,9.33,4.55,1.56.7,3.15,1.43,4.75,2.16,3.19,1.43,6.41,2.76,9.69,4.05,4.38,1.73,8.8,3.32,13.25,4.81h.03c2.99,1.03,6.01,1.99,9.03,2.89,3.05.9,6.14,1.76,9.23,2.59,1.79.43,3.55.9,5.35,1.33,1.79.5,3.59.9,5.38,1.26,7.2,1.63,14.54,2.95,21.98,3.98,3.69.53,7.44,1.03,11.22,1.39,1.89.17,3.78.33,5.68.53,1.93.17,3.82.3,5.74.4,3.82.27,7.64.46,11.49.53,1.96.07,3.85.1,5.81.1h86.98v-.03h.03v-.23Z"/>
    <path class="st15" d="M1184.55,604.44c-46.18,23.64-85.36,60.82-111.32,105.78-.27.46-7.44-.33-8.33-.33-2.89-.03-5.78,0-8.67.13-5.78.23-11.52.8-17.23,1.69-11.42,1.76-22.68,4.71-33.5,8.8-25.36,9.53-48.31,24.93-66.6,44.89-12.12,13.25-22.05,28.09-30.35,43.89-2.39,4.58-4.65,9.23-6.77,13.94-5.25,11.52-9.4,23.61-12.38,35.92-.63,2.69-1.23,5.41-1.79,8.17-.1.43-.2.9-.3,1.36-6.08,27.82-6.61,56.24-3.85,84.56,2.72,28.09,8.93,55.84,18.49,82.4,3.95,10.89,8.4,21.55,13.45,31.97.17.4.33.76.53,1.16-77.59-48.41-124.77-141.77-117.63-232.9,7.14-91.17,68.33-176.09,152.56-211.65,72.74-30.74,154.95-25.53,233.7-19.79Z"/>
  </g>
  <g>
    <g>
      <path class="st2" d="M657.61,301.65c62.96,0,114.47,42.91,128.77,100.14h-61.52c-11.45-24.32-37.2-41.49-67.25-41.49-41.49,0-74.41,32.91-74.41,74.4s32.91,74.41,74.41,74.41c30.04,0,55.8-17.18,67.25-41.5h61.52c-14.3,57.22-65.81,100.15-128.77,100.15-72.97,0-133.07-60.09-133.07-133.06s60.1-133.06,133.07-133.06Z"/>
      <path class="st2" d="M1029.71,567.77v-150.23c0-28.61,24.32-52.94,52.94-52.94h0c30.05,0,54.36,24.34,54.36,52.94v150.23h58.67v-148.8c0-61.52-50.09-113.03-113.03-113.03h0c-32.91,0-62.96,14.3-82.98,37.18-20.05-22.88-50.09-37.18-82.99-37.18h0c-62.96,0-113.05,51.51-113.05,113.03v148.8h60.11v-150.23c0-28.61,22.88-52.94,52.94-52.94h0c28.61,0,52.92,24.34,52.92,52.94v1.43h0v148.8h60.11Z"/>
      <path class="st2" d="M1274.46,431.84c0,24.32,7.14,42.93,20.03,57.23,12.85,12.88,30.05,20.03,52.94,20.03,21.43,0,38.62-7.14,52.91-21.47,12.88-14.3,18.63-32.89,18.63-57.23,0-21.47-5.75-38.62-20.03-52.92-14.32-14.32-31.48-21.47-51.51-21.47-21.47,0-38.66,7.14-52.94,21.47-12.88,14.3-20.03,32.9-20.03,54.36ZM1212.94,431.84c0-17.18,2.83-34.33,10.02-50.07,7.14-17.17,15.72-31.48,28.6-44.37,12.89-12.87,27.17-22.88,42.93-28.61,17.16-7.16,32.88-11.45,51.51-11.45,17.16,0,34.31,4.29,50.07,10.01,15.72,5.72,30.05,15.74,42.93,27.19,14.29,12.86,24.3,27.18,31.48,44.34,7.14,17.17,11.45,34.35,11.45,51.51,0,20.03-4.31,38.64-10.01,54.38-5.75,15.74-15.76,30.04-28.64,42.93-12.85,14.3-27.17,24.32-42.93,30.04-17.16,7.14-34.31,10.01-54.34,10.01-18.63,0-35.79-2.87-51.51-10.01-15.76-7.16-31.48-17.17-44.36-30.04-11.45-14.32-21.46-28.63-27.17-44.37-7.18-15.74-10.02-32.91-10.02-51.51Z"/>
      <g>
        <path class="st2" d="M1730.96,292.3c20.04,0,37.2-15.74,37.2-37.21,0-20.03-17.17-35.77-37.2-35.77s-37.19,15.74-37.19,35.77c0,21.47,17.17,37.21,37.19,37.21Z"/>
        <path class="st2" d="M1633.68,300.94c-74.38,0-134.46,60.07-134.46,132.99s60.07,133.08,134.46,133.08c23.81,0,46.35-6.37,65.76-17.64,25.48-14.6,45.77-37.44,57.23-64.78,6.47-15.68,10.09-32.73,10.09-50.67,0-72.91-60.07-132.99-133.08-132.99ZM1633.68,508.4c-41.45,0-75.85-32.93-75.85-74.48s34.4-74.38,75.85-74.38,74.38,32.93,74.38,74.38-34.3,74.48-74.38,74.48Z"/>
      </g>
      <path class="st2" d="M1756.67,466.48v90.57c0,13.25-2.44,26.54-8.28,38.43-4.93,10.02-11.1,17.65-18.86,25.35-22.83,25.77-55.76,39.3-97.31,39.3-31.46,0-57.23-7.64-77.22-21.95-21.46-15.68-37.24-38.02-45.77-66.64h57.23c5.68,14.31,14.31,22.05,25.77,27.83,11.37,7.15,24.3,10.58,38.61,10.58,24.3,0,42.92-7.55,58.6-23.23.04-.04.09-.09.13-.13,6.23-6.19,9.87-14.5,9.87-23.28v-32.06c25.48-14.6,45.77-37.44,57.23-64.78Z"/>
      <path class="st2" d="M1756.67,472.83v11.76c-11.47,27.34-31.75,50.18-57.23,64.78v-76.54h57.23Z"/>
    </g>
    <g>
      <g>
        <path class="st5" d="M1360.88,1000.78c4.75,0,9.4.3,13.97.88-5.29-.06-10.55-.39-15.69-.88h1.72Z"/>
        <path class="st1" d="M1375.22,704.32c-4.69.63-9.46.94-14.33.94h-1.87c5.35-.54,10.73-.85,16.21-.94Z"/>
        <path class="st18" d="M1284.89,645.03c-4.72,1.6-9.37,3.3-13.94,5.08,4.57-1.81,9.22-3.51,13.94-5.08Z"/>
        <path class="st19" d="M1309.02,638.11c-4.38,1.06-8.71,2.21-13,3.45,4.29-1.27,8.62-2.42,13-3.45Z"/>
        <path class="st9" d="M1464.96,629.91v.42l-.03.03v-.42h-87.03c-5.26.03-10.46.15-15.63.42,5.17-.3,10.4-.42,15.66-.45h87.03Z"/>
        <path class="st10" d="M1464.96,1075.82v.24h-.03v-.33s.03.06.03.09Z"/>
      </g>
      <path class="st8" d="M1464.96,629.91v.42c-.3.91-.6,1.81-.97,2.69-.33.94-.67,1.84-1.06,2.78-.3.82-.67,1.66-1,2.48-.39.91-.79,1.84-1.21,2.78-.7,1.48-1.42,2.99-2.18,4.45-.85,1.66-1.72,3.3-2.63,4.9-.42.7-.82,1.36-1.24,2.03-.94,1.57-1.94,3.11-2.93,4.63-.48.67-.94,1.33-1.42,2-1.03,1.45-2.06,2.84-3.14,4.23-.54.7-1.12,1.36-1.66,2.06-.54.67-1.12,1.33-1.69,2-4.02,4.66-8.44,8.95-13.15,12.85-.88.73-1.75,1.42-2.66,2.12-.88.7-1.75,1.36-2.66,2-1.21.88-2.45,1.75-3.69,2.57-.85.57-1.69,1.12-2.57,1.66-3.54,2.21-7.2,4.23-10.98,6.02-.97.48-1.97.94-2.93,1.36-.85.39-1.66.73-2.51,1.09-.51.21-1.03.42-1.54.6-2.24.91-4.48,1.69-6.77,2.42-1.12.36-2.27.7-3.42,1.03-.24.09-.48.15-.73.21-1,.27-2,.54-2.99.79-2.33.57-4.69,1.09-7.08,1.48-.63.12-1.27.24-1.93.33-.97.15-1.97.3-2.96.42-5.47.09-10.86.39-16.21.94h-20.9c-55.82,0-105.69,30.36-131.75,75.81,0,0,0,.03-.03.03-11.43,20.02-18.33,42.91-19.05,67.46-.27,9.13.3,18.11,1.63,26.82.54,3.66,1.24,7.26,2.06,10.8.03.06.03.12.03.18.54,2.3,1.12,4.57,1.78,6.83.36,1.27.73,2.51,1.09,3.72.7,2.24,1.42,4.41,2.24,6.59.03.09.09.18.09.27.82,2.15,1.66,4.26,2.54,6.38v.09c22.41,53.13,75.02,90.54,136.23,90.54h24.19c.12,0,.24.03.36.03,4.9.45,9.92.79,14.97.85h.36c.91.12,1.81.24,2.72.39.94.12,1.81.27,2.72.45,2.27.39,4.54.88,6.77,1.42,1.09.27,2.21.54,3.3.88,1.9.51,3.81,1.12,5.68,1.75.82.27,1.63.54,2.42.85.15.06.33.12.48.18,1.24.45,2.48.94,3.69,1.45.79.3,1.54.64,2.3.97.97.42,1.94.85,2.9,1.33,3.81,1.78,7.47,3.81,11.01,6.02.97.57,1.91,1.18,2.84,1.81,3.08,2.06,6.08,4.29,8.95,6.65.67.54,1.33,1.12,2,1.69.67.57,1.33,1.15,1.97,1.75,1.3,1.18,2.57,2.39,3.81,3.63.6.64,1.24,1.24,1.84,1.87,1.21,1.27,2.39,2.57,3.54,3.9.57.67,1.15,1.33,1.69,2.03.54.67,1.12,1.36,1.66,2.06,2.72,3.45,5.23,7.11,7.53,10.89.42.7.82,1.39,1.24,2.09.91,1.57,1.78,3.18,2.6,4.81.42.79.82,1.57,1.18,2.36,1.18,2.39,2.24,4.84,3.21,7.35.33.82.67,1.66.97,2.51.3.82.6,1.66.88,2.51.09.15.12.3.18.45v.36h-88.21c-1.97,0-3.93-.03-5.9-.09-3.9-.09-7.8-.27-11.67-.51-1.94-.12-3.87-.27-5.81-.42-1.91-.18-3.84-.36-5.75-.54-3.81-.39-7.62-.88-11.4-1.39-7.53-1.09-14.97-2.45-22.26-4.05-1.84-.42-3.66-.85-5.47-1.27-1.81-.45-3.6-.91-5.41-1.36-3.15-.82-6.26-1.69-9.34-2.63-3.08-.91-6.14-1.87-9.16-2.9h-.03c-4.54-1.54-9.01-3.18-13.43-4.9h-.03c-3.33-1.33-6.59-2.69-9.83-4.11-1.6-.73-3.21-1.45-4.81-2.18-3.21-1.48-6.35-3.02-9.47-4.6-4.69-2.39-9.25-4.9-13.73-7.53-1.91-1.12-3.75-2.24-5.62-3.39-1.45-.91-2.9-1.81-4.32-2.75-1.3-.85-2.6-1.72-3.9-2.6-1.36-.91-2.69-1.84-4.02-2.75-1.33-.94-2.66-1.91-3.96-2.84-1.48-1.09-2.93-2.18-4.38-3.27-1.45-1.12-2.87-2.24-4.29-3.36-2.84-2.27-5.62-4.6-8.35-6.96-1.81-1.6-3.6-3.21-5.35-4.84-1.75-1.6-3.48-3.27-5.17-4.93-1.6-1.6-3.21-3.21-4.78-4.84-.48-.48-.97-1-1.42-1.51-.88-.91-1.72-1.81-2.54-2.75-2-2.15-3.9-4.35-5.78-6.56-1.63-1.94-3.27-3.9-4.84-5.9-3.15-3.99-6.14-8.07-8.98-12.22-1.42-2.09-2.81-4.17-4.14-6.29-.91-1.42-1.78-2.84-2.63-4.26-.88-1.45-1.72-2.87-2.54-4.32-1.45-2.6-2.87-5.2-4.23-7.83-1.36-2.63-2.66-5.29-3.9-7.98-.6-1.33-1.21-2.69-1.81-4.05-2.93-6.77-5.5-13.7-7.71-20.77-.42-1.42-.85-2.81-1.27-4.26-1.6-5.69-2.99-11.46-4.08-17.33-.27-1.48-.54-2.93-.79-4.41-.73-4.42-1.3-8.89-1.72-13.4-.15-1.51-.27-2.99-.36-4.51-.12-1.51-.21-3.02-.27-4.54-.15-3.05-.21-6.11-.21-9.16,0-3.45.09-6.89.27-10.31.06-1.21.12-2.42.21-3.63.54-7.71,1.54-15.3,2.99-22.77.24-1.18.45-2.33.7-3.48.51-2.33,1.03-4.63,1.6-6.92.3-1.12.6-2.27.91-3.42.24-.91.48-1.84.76-2.75.79-2.84,1.66-5.69,2.6-8.47,6.02-17.99,14.55-35.02,25.31-50.83,1.93-2.87,3.96-5.69,6.05-8.47l.03-.03c2.09-2.78,4.26-5.53,6.47-8.23,2.24-2.69,4.54-5.35,6.89-7.95l.03-.03c2.36-2.6,4.81-5.17,7.29-7.68,1.27-1.27,2.54-2.51,3.81-3.75,23.62-22.74,52.56-41.28,85.15-54.16,4.57-1.81,9.22-3.51,13.94-5.08,1.57-.54,3.15-1.03,4.75-1.54,2.12-.67,4.23-1.33,6.38-1.94,4.29-1.27,8.62-2.42,13-3.45,2.21-.54,4.42-1.03,6.62-1.51,9.1-1.97,18.42-3.51,27.85-4.63,4.14-.48,8.35-.88,12.58-1.18.33-.06.7-.09,1.03-.09,1.72-.12,3.45-.24,5.17-.33,5.17-.3,10.4-.42,15.66-.45h87.03Z"/>
    </g>
    <path class="st16" d="M1464.96,1075.82c3.63,10.89,5.59,22.53,5.59,34.62h-131.27c-8.83,0-17.57-.42-26.19-1.3h-262.48c-33.51,0-65.62-6.38-95.28-17.9t.03.06c-.82-.3-1.63-.64-2.45-.97-15.51-6.17-30.36-13.76-44.27-22.65h-.03v-.03c-.94-2.06-1.78-4.05-2.63-6.11-.06-.09-.09-.18-.12-.27-.61-1.36-1.18-2.75-1.75-4.11-.03-.12-.09-.21-.12-.33-.48-1.15-.97-2.3-1.42-3.45-1.15-2.81-2.27-5.62-3.36-8.41-1.6-4.2-3.11-8.32-4.57-12.4-1.42-4.08-2.75-8.13-4.02-12.13-.54-1.66-1.06-3.36-1.57-4.99-.48-1.66-.97-3.33-1.45-4.96-.54-1.84-1.06-3.69-1.54-5.5-.51-1.81-1-3.63-1.45-5.44-1.48-5.72-2.78-11.31-3.93-16.81-.06-.27-.12-.54-.18-.82-.3-1.54-.6-3.08-.91-4.63-.27-1.51-.57-3.05-.85-4.57-.27-1.48-.51-2.99-.76-4.48-.03-.15-.06-.33-.09-.48-.45-2.81-.88-5.59-1.24-8.35-.24-1.78-.48-3.54-.7-5.29v-.12c-.15-1.06-.27-2.12-.39-3.18-.12-1.06-.21-2.12-.3-3.14-.15-1.42-.27-2.84-.39-4.26-.15-1.75-.3-3.48-.39-5.17-.24-3.45-.42-6.8-.51-10.13-.03-.67-.06-1.33-.06-2-.06-1.3-.09-2.6-.09-3.9-.03-1.3-.03-2.6-.03-3.87l.45-15.66c0-.12,0-.21.03-.33v-.3c.09-1.33.18-2.63.27-3.93l.42-4.78.24-2.75v-.12c.06-.51.12-1.03.18-1.54l1.21-9.5c.18-1.18.36-2.39.54-3.54v-.03c0-.06.03-.09.03-.15l10.16-40.19c.24-.73.51-1.45.76-2.15l.09-.27,7.44-17.93.12-.24c.33-.73.7-1.45,1.03-2.15l2.06-4.11.57-1.06c.57-.03,1.18-.03,1.75-.03h130c-4.66,16.21-6.8,32.87-6.2,49.86.45,13.06,2.57,25.88,6.26,38.43h-125.89c.7,2.24,1.45,4.45,2.27,6.65.33,1,.7,2,1.12,2.96.45,1.12.91,2.24,1.36,3.33v.03s.03.06.03.09c22.38,53.13,74.99,90.54,136.2,90.54h77.93c-28.46-40.16-45.63-88.75-46.63-141.49-2.75-144.21,113.76-262.39,257.37-262.39h135.59c0,12.13-1.97,23.77-5.59,34.65v-.36h-87.03c-5.26.03-10.49.15-15.66.45-1.72.09-3.45.21-5.17.33-.33,0-.7.03-1.03.09-4.23.3-8.44.7-12.58,1.18-9.44,1.12-18.75,2.66-27.85,4.63-2.21.48-4.42.97-6.62,1.51-4.38,1.03-8.71,2.18-13,3.45-2.15.6-4.26,1.27-6.38,1.94-1.6.51-3.18,1-4.75,1.54-4.72,1.57-9.37,3.27-13.94,5.08-32.6,12.88-61.54,31.42-85.15,54.16-1.27,1.24-2.54,2.48-3.81,3.75-2.48,2.51-4.93,5.08-7.29,7.68l-.03.03c-2.39,2.6-4.69,5.26-6.89,7.95-2.21,2.69-4.38,5.44-6.47,8.23l-.03.03c-2.09,2.78-4.11,5.59-6.05,8.47-10.77,15.82-19.29,32.84-25.31,50.83-.94,2.78-1.81,5.62-2.6,8.47-.27.91-.51,1.84-.76,2.75-.3,1.15-.61,2.3-.91,3.42-.57,2.3-1.12,4.6-1.6,6.92-.24,1.15-.45,2.3-.7,3.48-1.45,7.47-2.45,15.06-2.99,22.77-.09,1.21-.15,2.42-.21,3.63-.21,3.42-.3,6.86-.3,10.34,0,3.05.06,6.11.24,9.13.03,1.51.12,3.02.27,4.54.06,1.51.18,2.99.36,4.51.39,4.51.97,8.95,1.72,13.4.21,1.48.48,2.93.79,4.41,1.06,5.87,2.42,11.64,4.08,17.33.36,1.42.79,2.84,1.27,4.26,2.15,7.08,4.72,14,7.71,20.77.6,1.36,1.21,2.72,1.81,4.05,1.21,2.69,2.51,5.35,3.9,7.98,1.33,2.63,2.72,5.26,4.23,7.83.82,1.45,1.66,2.87,2.54,4.32.85,1.42,1.72,2.84,2.63,4.26,1.33,2.12,2.72,4.2,4.14,6.29,2.81,4.17,5.81,8.23,8.98,12.22,1.57,2,3.21,3.96,4.84,5.9,1.81,2.21,3.75,4.41,5.78,6.56.79.94,1.63,1.84,2.54,2.75.45.51.94,1.03,1.42,1.51,1.54,1.63,3.15,3.24,4.78,4.84,1.69,1.72,3.42,3.36,5.17,4.93,1.75,1.69,3.54,3.3,5.35,4.84,2.72,2.36,5.5,4.69,8.35,6.96,1.42,1.12,2.84,2.24,4.29,3.36,1.45,1.09,2.9,2.18,4.38,3.27,1.3.94,2.63,1.91,3.96,2.84,1.33.97,2.66,1.87,4.02,2.75,1.27.91,2.57,1.78,3.9,2.6,1.42.94,2.87,1.84,4.32,2.75,1.87,1.15,3.72,2.27,5.62,3.39,4.48,2.63,9.04,5.14,13.73,7.53,3.11,1.6,6.26,3.14,9.47,4.6,1.6.73,3.21,1.45,4.81,2.18,3.24,1.45,6.5,2.81,9.83,4.11h.03c4.41,1.75,8.89,3.39,13.43,4.9h.03c3.02,1.03,6.08,2,9.16,2.9,3.08.94,6.2,1.81,9.34,2.63,1.81.45,3.6.91,5.41,1.36,1.81.48,3.63.91,5.47,1.27,7.29,1.66,14.73,2.99,22.26,4.05,3.75.54,7.56,1.03,11.4,1.39,1.91.18,3.84.36,5.75.54,1.94.18,3.87.3,5.81.42,3.87.27,7.77.45,11.67.51,1.97.09,3.9.12,5.87.12h88.21v-.03h.03v-.24Z"/>
    <g>
      <path class="st6" d="M1181.89,594.32v.6c-47.14,25.28-86.54,63.14-113.67,109.04h-18.78c-55.82,0-105.66,30.36-131.75,75.81,0,0,0,.03-.03.03-.03.03-.06.06-.09.12l-3.33,4.05-13.4,20.9-1.45,2.75h-.03l-.54,1.06-2.06,4.11c-.33.7-.7,1.42-1.03,2.15l-.12.24-7.44,17.93-.09.27c-.24.7-.51,1.42-.76,2.15l-10.16,40.19c0,.06-.03.09-.03.15v.03c-.18,1.15-.36,2.36-.54,3.54l-.09.51-1.12,8.98c-.06.51-.12,1.03-.18,1.54v.12c-.06.33-.09.64-.12.97-.06.6-.12,1.18-.15,1.78-.12,1.21-.24,2.42-.33,3.66-.03.36-.06.73-.06,1.12-.09,1.3-.18,2.6-.27,3.93v.3c-.03.12-.03.21-.03.33l-.45,15.66c0,1.27,0,2.57.03,3.87,0,1.3.03,2.6.09,3.9,0,.67.03,1.33.06,2,.09,3.33.27,6.68.51,10.13.09,1.69.24,3.42.39,5.17.12,1.42.24,2.84.39,4.26.09,1.03.18,2.09.3,3.14.09,1.06.27,2.12.39,3.18v.12c.21,1.75.45,3.51.7,5.29.36,2.75.79,5.53,1.24,8.35.03.15.06.33.09.48.24,1.48.48,2.99.76,4.48.51,3.02,1.12,6.08,1.75,9.19.06.27.12.54.18.82,1.15,5.5,2.45,11.1,3.93,16.81.45,1.81.94,3.63,1.45,5.44.47,1.77.98,3.57,1.51,5.38.49,1.69.97,3.38,1.49,5.09.51,1.63,1.03,3.33,1.57,4.99,1.27,3.99,2.6,8.04,4.02,12.13,1.45,4.08,2.96,8.19,4.57,12.4,1.09,2.78,2.21,5.59,3.36,8.41.45,1.15.94,2.3,1.42,3.45.03.12.09.21.12.33.09.21.18.45.27.67.45,1.15.97,2.3,1.48,3.45.03.09.06.18.12.27.85,2.06,1.69,4.05,2.63,6.11-70.34-44.84-117.99-122.02-119.69-210.95-2.72-144.21,113.79-262.39,257.37-262.39h135.59Z"/>
      <polygon class="st3" points="955.39 1091.34 955.35 1091.34 955.35 1091.31 955.39 1091.34"/>
    </g>
    <path class="st2" d="M597.71,640.28c-12.91,0-25.44,3.87-34.03,10.32v-54.14h-25.78v103.82c0,32.91,26.28,60,59.83,60s60-27.1,60-60-27.11-60-60.01-60ZM597.55,733.84c-18.71,0-34.2-14.84-34.2-33.56s15.49-33.55,34.2-33.55,33.55,14.84,33.55,33.55-14.84,33.56-33.55,33.56Z"/>
    <path class="st2" d="M745.96,642.75v67.13c0,6.79-2.73,12.9-7.1,17.31-4.33,4.46-10.3,7.18-16.75,7.18-13.59,0-23.89-10.95-23.89-24.5v-67.13h-27.09v66.48c0,14.2,5.67,26.92,14.85,36.1,9.18,9.22,21.94,14.85,36.14,14.85,9.91,0,19.22-2.86,27.09-7.88,14.24-8.92,23.85-24.8,23.85-43.06v-66.48h-27.09Z"/>
    <path class="st2" d="M773.06,709.23v51.93c0,10.54-3.02,21.04-9.47,29.38-.68.88-1.39,1.74-2.13,2.57-9.69,11.6-22.59,17.4-39.99,17.4-12.29,0-23.24-3.2-31.64-9.65-8.4-7.1-14.8-16.79-18.7-29.69h23.85c1.95,5.15,5.84,9.65,10.34,12.25,5.15,3.25,10.34,4.5,16.14,4.5,1.51,0,3.02-.08,4.52-.25,1.44-.17,2.86-.42,4.26-.78,1.36-.34,2.7-.78,3.99-1.31s2.54-1.16,3.74-1.87c5.57-3.32,9.56-8.04,10.81-14.54.28-1.43.41-2.89.41-4.34v-12.52c14.24-8.92,23.85-24.8,23.85-43.06Z"/>
    <path class="st2" d="M773.06,698.5v10.73c0,18.26-9.61,34.15-23.85,43.06v-53.8h23.85Z"/>
  </g>
</svg>